<?xml version="1.0" encoding="UTF-8"?>
<svg xmlns="http://www.w3.org/2000/svg" width="64" height="64" viewBox="2000 5800 17200 17200">
  <style>
    .fil0 { fill: #373435; }
    .fil1 { fill: #38B6FF; }
  </style>
  <path class="fil0" d="M2497.44 20705.81c209.23,70.82 6791.57,24.1 7965.86,23.36l2493.22 1.67c13,-3.04 23.34,-6.37 35.18,-10.36l90.83 -53.94c48.15,-63.08 102.59,-4589.74 -24.32,-4367.47l-263.86 -29.44c-1083.85,3.41 -4506.65,53.43 -5023.42,-9.81l-3.03 -12024.32c-1671.04,36.6 -3026.82,725.18 -3885.62,1544.03 -400.61,381.99 -839.81,956.3 -1090.83,1610.95 -324.26,845.69 -292.95,1452.23 -294.16,2433.3 -4.41,3626.57 16.23,7256.01 0.15,10882.03z"/>
  <polygon class="fil1" points="9123.14,14925.31 13108.03,14926.67 13129.94,12374.58 14475.46,12376.28 14484.86,22470.11 18742.48,22469.77 18743.01,8322.68 9136.74,8322.87 "/>
</svg>
